<svg version="1" xmlns="http://www.w3.org/2000/svg" width="933.333" height="933.333" viewBox="0 0 700.000000 700.000000"><path d="M259.6 94.6c-1.3 1.3-1.6 4.2-1.6 16.4s-.3 15.1-1.6 16.4c-1.3 1.3-4.2 1.6-16.3 1.6-13.1 0-15 .2-16.4 1.8-1.5 1.7-1.7 5.6-1.7 34.8 0 26.1-.3 33.4-1.3 34.9-1.3 1.7-3.6 1.8-36.1 1.9-29.7.1-34.8.3-35.6 1.6-1.2 1.9-1.2 1.2-1.3 16.9-.2 11.2.1 13.8 1.4 15.5 1.9 2.3-22.3 2.1 262.6 2.7 127.8.3 137.4.2 139-1.4 1.4-1.4 1.7-3.9 1.8-15.4.1-15.5-.6-19.2-3.8-19.5-1.2-.1-15.7-.2-32.2-.4-36.8-.2-34-.1-35.9-2-1.4-1.3-1.6-5.9-1.6-34.8 0-31-.1-33.4-1.8-34.9-1.6-1.4-4.3-1.7-16.5-1.7-11.9 0-14.8-.3-16.1-1.6-1.3-1.3-1.6-4.2-1.6-16.4s-.3-15.1-1.6-16.4c-1.4-1.4-11-1.6-90.9-1.6s-89.5.2-90.9 1.6zM677.7 238.7c-.1.1-11 .3-24.1.5-20.5.2-24.2.5-26 1.9-1.9 1.6-2.1 2.8-2.1 15.5-.1 7.7.3 14.9.9 16.1 1 2.6.7 2.5 16.6 2.8 16 .4 15.7.3 17.3 1.9 1.1 1.1 1.4 4.8 1.4 16 0 19.4-1.1 18.3 18.3 18.2 10.7-.1 15.3-.5 16.2-1.4 1.9-1.9 2.3-67.2.4-69.8-1.1-1.5-2.8-1.8-10.1-1.8-4.7-.1-8.7 0-8.8.1zM2.8 241.2c-1.7 1.7-1.8 4.2-1.8 35.1 0 30.9.1 33.5 1.8 35 2.5 2.3 31.7 2 33.2-.3.5-.8 1-7.6 1-15s.3-14.5.6-15.8c.8-3 3.1-3.4 18.9-3.6 11-.1 13.7-.4 15.1-1.7 2.4-2.4 2.5-30.2.1-32.6-1.3-1.3-4.9-1.7-20.4-2-10.3-.2-25.1-.5-32.7-.6-12.4-.3-14.2-.1-15.8 1.5zM75.7 315.2c-2 3.3-1.9 66.7.2 69.1 1.1 1.4 3.6 1.7 16 1.7 11 0 15.2.4 16.6 1.4 1.7 1.3 1.9 2.8 2 17 0 12.7.3 15.9 1.6 17.1 1.3 1.4 6.2 1.6 34.7 1.7 29.6.1 33.4-.1 35-1.5 1.7-1.6 1.9-4 1.9-35.4 0-31.9.1-33.7 1.9-35 1.5-1.1 5.2-1.3 17.1-1.1 8.3.2 15.5.7 16 1.1.4.5.9 7 1 14.5.1 7.5.2 14.5.2 15.4.2 4.2 2.5 4.8 18 4.8 13.1 0 15-.2 16.5-1.9 1.5-1.6 1.6-5.1 1.4-35.5-.3-28.6-.5-33.8-1.8-34.6-.9-.6-35.7-1-89.2-1H77l-1.3 2.2zM445.6 314.6c-1.4 1.3-1.6 5.9-1.6 34.8 0 31 .1 33.4 1.8 34.9 1.6 1.4 4.3 1.7 16.3 1.7 10.4 0 15-.4 16.3-1.3 1.6-1.2 1.8-3 1.8-16.3 0-12.1.3-15.2 1.6-16.7s3.5-1.7 16.1-1.7c8 0 15.1.4 15.7.8 2.6 1.7 3 6.2 2.8 36.5-.1 28.3.1 32.1 1.5 33.9 1.7 2 2.6 2 35 2 28.6.1 33.5-.2 34.8-1.5 1.7-1.7 1.7-1.8 2.8-15.7.4-5.2.9-10.6 1-12 .2-1.4.3-3 .4-3.7.1-.6.8-1.9 1.7-2.7 1.3-1.3 4.2-1.6 16.3-1.6 12.8 0 15-.2 16.3-1.8 2.3-2.5 2.4-65.5.2-69L625 313h-89c-79.4 0-89 .2-90.4 1.6z"/><path d="M298.9 316.6c-1.1 1.3-1.4 8.5-1.4 34.3-.1 17.9-.5 33.6-.9 34.8-.4 1.4-1.6 2.3-2.9 2.4-1.2 0-8.6.1-16.4.2-10.1.2-14.6.6-15.5 1.5-.9.9-1.3 5.5-1.4 16.3-.1 12.2-.5 15.4-1.7 16.7-1.3 1.2-4.5 1.5-16.7 1.6-13.1.1-15.4.4-16.5 1.9-.9 1.3-1.2 9.8-1.2 34.8 0 29.6-.2 33.2-1.7 34.7-1.4 1.4-4.1 1.7-15.9 1.8-16.8.2-15.2 0-17.1 1.9-1.3 1.3-1.5 5.8-1.5 29.3 0 40.9.1 38.9-1.7 40.6-1.3 1.4-6 1.6-35.4 1.6-32.5 0-34 .1-35 1.9-.5 1.1-1 8.6-1 17 0 13.8.2 15.1 1.9 16.1 1.3.6 19.7 1 53 1 45 0 51.1-.2 52.5-1.6 1.9-1.9 1.7 2.4 1.8-36.1.1-30 .2-32.4 1.9-33.9 1.6-1.4 4.2-1.7 16.4-1.7 12.8 0 14.6-.2 16.1-1.8 1.5-1.7 1.7-5.5 1.8-35.3.1-25.6.4-33.8 1.4-34.8.9-.9 5.5-1.3 16.2-1.3 12.7-.1 15.2-.3 16.7-1.8 1.4-1.4 1.7-4 1.8-16.6 0-10.8.4-15.4 1.3-16.3 1.8-1.8 103.6-2 106-.2 1.4 1.1 1.7 3.5 1.8 16.4.2 12.5.5 15.5 1.8 16.8 1.3 1.3 4.3 1.6 16.7 1.7 13.6.1 15.3.3 16.6 2 1.1 1.6 1.3 8.3 1.3 34.8-.1 28.1.1 33.2 1.4 34.6 1.3 1.4 3.9 1.7 16.8 1.9 13.2.1 15.5.4 16.5 1.9 1 1.3 1.3 9.8 1.3 34.9 0 28.9.2 33.5 1.6 34.8 1.4 1.4 7.5 1.6 52.8 1.6 41.4 0 51.6-.3 53.1-1.4 1.6-1.2 1.8-2.9 1.8-16.5.1-13-.2-15.4-1.7-16.9-1.5-1.5-5-1.7-33.9-2-25.5-.3-32.7-.7-34.4-1.8-2.2-1.4-2.2-1.5-2.3-35.1 0-27.6-.3-34-1.5-35.2-1-1-5-1.4-16.6-1.6-13.5-.1-15.3-.3-16.5-2-1.1-1.5-1.4-8.6-1.4-35.2V426l-2.2-1.4c-1.8-1.1-5.8-1.4-16.7-1.3-12.9 0-14.5-.2-15.7-1.8-1-1.4-1.4-5.7-1.4-16.1 0-11.9-.3-14.4-1.7-15.5-1.2-1-5.6-1.4-16.7-1.6-13.1-.1-15.2-.3-16.3-1.9-1-1.4-1.3-9.3-1.3-34.9 0-30.9-.1-33.3-1.8-34.8s-6.8-1.7-53.4-1.7c-46.3 0-51.7.2-52.9 1.6zM80.3 533.8c-5.3.5-5.8 2-5.9 18-.1 19.1-1.1 18 18.1 18 12.5 0 14.9-.2 16.4-1.7 2.4-2.4 2.4-30.3-.1-32.7-1.2-1.2-4.1-1.6-13.4-1.7-6.6-.1-13.3-.1-15.1.1zM595 534c-2.2.3-3.8 1.3-4.5 2.7-.7 1.2-1 8-1 16.3.1 12.4.4 14.4 1.9 15.6 2.5 1.8 30.9 1.5 32.8-.4.9-.9 1.3-5.4 1.4-15.9 0-19.2.6-18.5-15.2-18.7-6.5 0-13.5.1-15.4.4z"/></svg>